<?xml version="1.0" encoding="us-ascii" standalone="no"?><svg xmlns="http://www.w3.org/2000/svg" xmlns:xlink="http://www.w3.org/1999/xlink" contentStyleType="text/css" height="440px" preserveAspectRatio="none" style="width:957px;height:440px;background:#FFFFFF;" version="1.1" viewBox="0 0 957 440" width="957px" zoomAndPan="magnify"><defs/><g><line style="stroke:#181818;stroke-width:0.5;stroke-dasharray:5.0,5.0;" x1="27" x2="27" y1="39.0679" y2="402.1281"/><line style="stroke:#181818;stroke-width:0.5;stroke-dasharray:5.0,5.0;" x1="133" x2="133" y1="39.0679" y2="402.1281"/><line style="stroke:#181818;stroke-width:0.5;stroke-dasharray:5.0,5.0;" x1="728" x2="728" y1="39.0679" y2="402.1281"/><rect fill="#E2E2F0" height="33.0679" rx="2.5" ry="2.5" style="stroke:#181818;stroke-width:0.5;" width="45" x="5" y="5"/><text fill="#000000" font-family="sans-serif" font-size="14" lengthAdjust="spacing" textLength="31" x="12" y="26.9659">User</text><rect fill="#E2E2F0" height="33.0679" rx="2.5" ry="2.5" style="stroke:#181818;stroke-width:0.5;" width="45" x="5" y="401.1281"/><text fill="#000000" font-family="sans-serif" font-size="14" lengthAdjust="spacing" textLength="31" x="12" y="423.094">User</text><rect fill="#E2E2F0" height="33.0679" rx="2.5" ry="2.5" style="stroke:#181818;stroke-width:0.5;" width="41" x="113" y="5"/><text fill="#000000" font-family="sans-serif" font-size="14" lengthAdjust="spacing" textLength="27" x="120" y="26.9659">App</text><rect fill="#E2E2F0" height="33.0679" rx="2.5" ry="2.5" style="stroke:#181818;stroke-width:0.5;" width="41" x="113" y="401.1281"/><text fill="#000000" font-family="sans-serif" font-size="14" lengthAdjust="spacing" textLength="27" x="120" y="423.094">App</text><rect fill="#E2E2F0" height="33.0679" rx="2.5" ry="2.5" style="stroke:#181818;stroke-width:0.5;" width="67" x="695" y="5"/><text fill="#000000" font-family="sans-serif" font-size="14" lengthAdjust="spacing" textLength="53" x="702" y="26.9659">OIDApp</text><rect fill="#E2E2F0" height="33.0679" rx="2.5" ry="2.5" style="stroke:#181818;stroke-width:0.5;" width="67" x="695" y="401.1281"/><text fill="#000000" font-family="sans-serif" font-size="14" lengthAdjust="spacing" textLength="53" x="702" y="423.094">OIDApp</text><polygon fill="#181818" points="121.5,68.7739,131.5,72.7739,121.5,76.7739,125.5,72.7739" style="stroke:#181818;stroke-width:1.0;"/><line style="stroke:#181818;stroke-width:1.0;" x1="27.5" x2="127.5" y1="72.7739" y2="72.7739"/><text fill="#000000" font-family="sans-serif" font-size="13" lengthAdjust="spacing" textLength="82" x="34.5" y="66.9649">click login link</text><polygon fill="#181818" points="716.5,100.4799,726.5,104.4799,716.5,108.4799,720.5,104.4799" style="stroke:#181818;stroke-width:1.0;"/><line style="stroke:#181818;stroke-width:1.0;" x1="133.5" x2="722.5" y1="104.4799" y2="104.4799"/><text fill="#000000" font-family="sans-serif" font-size="13" lengthAdjust="spacing" textLength="301" x="140.5" y="98.6709">Discover openID metadata GET $URL/.well-known/</text><line style="stroke:#181818;stroke-width:1.0;" x1="133.5" x2="175.5" y1="136.186" y2="136.186"/><line style="stroke:#181818;stroke-width:1.0;" x1="175.5" x2="175.5" y1="136.186" y2="149.186"/><line style="stroke:#181818;stroke-width:1.0;" x1="134.5" x2="175.5" y1="149.186" y2="149.186"/><polygon fill="#181818" points="144.5,145.186,134.5,149.186,144.5,153.186,140.5,149.186" style="stroke:#181818;stroke-width:1.0;"/><text fill="#000000" font-family="sans-serif" font-size="13" lengthAdjust="spacing" textLength="249" x="140.5" y="130.377">Generate code verifier and code challenge</text><polygon fill="#181818" points="716.5,176.892,726.5,180.892,716.5,184.892,720.5,180.892" style="stroke:#181818;stroke-width:1.0;"/><line style="stroke:#181818;stroke-width:1.0;" x1="133.5" x2="722.5" y1="180.892" y2="180.892"/><text fill="#000000" font-family="sans-serif" font-size="13" lengthAdjust="spacing" textLength="341" x="140.5" y="175.083">Send Code Request + Code Challenge to $AUTH endpoint</text><polygon fill="#181818" points="38.5,208.598,28.5,212.598,38.5,216.598,34.5,212.598" style="stroke:#181818;stroke-width:1.0;"/><line style="stroke:#181818;stroke-width:1.0;stroke-dasharray:2.0,2.0;" x1="32.5" x2="727.5" y1="212.598" y2="212.598"/><text fill="#000000" font-family="sans-serif" font-size="13" lengthAdjust="spacing" textLength="147" x="44.5" y="206.789">Redirect to login prompt</text><polygon fill="#181818" points="716.5,240.304,726.5,244.304,716.5,248.304,720.5,244.304" style="stroke:#181818;stroke-width:1.0;"/><line style="stroke:#181818;stroke-width:1.0;stroke-dasharray:2.0,2.0;" x1="27.5" x2="722.5" y1="244.304" y2="244.304"/><text fill="#000000" font-family="sans-serif" font-size="13" lengthAdjust="spacing" textLength="258" x="34.5" y="238.495">Authenticate (under full control of OID app)</text><polygon fill="#181818" points="144.5,272.01,134.5,276.01,144.5,280.01,140.5,276.01" style="stroke:#181818;stroke-width:1.0;"/><line style="stroke:#181818;stroke-width:1.0;" x1="138.5" x2="727.5" y1="276.01" y2="276.01"/><text fill="#000000" font-family="sans-serif" font-size="13" lengthAdjust="spacing" textLength="571" x="150.5" y="270.201">Redirect to redirect_uri and include the Authorization code which the app uses to get the tokens</text><polygon fill="#181818" points="716.5,303.716,726.5,307.716,716.5,311.716,720.5,307.716" style="stroke:#181818;stroke-width:1.0;"/><line style="stroke:#181818;stroke-width:1.0;" x1="133.5" x2="722.5" y1="307.716" y2="307.716"/><text fill="#000000" font-family="sans-serif" font-size="13" lengthAdjust="spacing" textLength="414" x="140.5" y="301.907">Send Authorization Code + Code verifier to /ouath/token to get token</text><line style="stroke:#181818;stroke-width:1.0;" x1="728.5" x2="770.5" y1="339.4221" y2="339.4221"/><line style="stroke:#181818;stroke-width:1.0;" x1="770.5" x2="770.5" y1="339.4221" y2="352.4221"/><line style="stroke:#181818;stroke-width:1.0;" x1="729.5" x2="770.5" y1="352.4221" y2="352.4221"/><polygon fill="#181818" points="739.5,348.4221,729.5,352.4221,739.5,356.4221,735.5,352.4221" style="stroke:#181818;stroke-width:1.0;"/><text fill="#000000" font-family="sans-serif" font-size="13" lengthAdjust="spacing" textLength="215" x="735.5" y="333.6131">Validate Code Verifier and Challenge</text><polygon fill="#181818" points="144.5,380.1281,134.5,384.1281,144.5,388.1281,140.5,384.1281" style="stroke:#181818;stroke-width:1.0;"/><line style="stroke:#181818;stroke-width:1.0;" x1="138.5" x2="727.5" y1="384.1281" y2="384.1281"/><text fill="#000000" font-family="sans-serif" font-size="13" lengthAdjust="spacing" textLength="188" x="150.5" y="378.3191">Send tokens (id, access, refresh)</text></g></svg>